<svg width="22" height="28" viewBox="0 0 22 28" fill="none" xmlns="http://www.w3.org/2000/svg">
<path d="M16.2941 9.32C13.6951 9.32 11.5882 11.1825 11.5882 13.48C11.5882 15.7775 13.6951 17.64 16.2941 17.64C18.8931 17.64 21 15.7775 21 13.48C21 11.1825 18.8931 9.32 16.2941 9.32ZM16.2941 9.32H11.5882M16.2941 9.32C17.5422 9.32 18.7392 8.88171 19.6217 8.10156C20.5042 7.32141 21 6.2633 21 5.16C21 4.0567 20.5042 2.99859 19.6217 2.21844C18.7392 1.43828 17.5422 1 16.2941 1H11.5882M11.5882 9.32H5.70588M11.5882 9.32V1M11.5882 9.32V17.64M11.5882 1H5.70588C4.45781 1 3.26085 1.43828 2.37832 2.21844C1.4958 2.99859 1 4.0567 1 5.16C1 6.2633 1.4958 7.32141 2.37832 8.10156C3.26085 8.88171 4.45781 9.32 5.70588 9.32M5.70588 9.32C4.45781 9.32 3.26085 9.75828 2.37832 10.5384C1.4958 11.3186 1 12.3767 1 13.48C1 14.5833 1.4958 15.6414 2.37832 16.4216C3.26085 17.2017 4.45781 17.64 5.70588 17.64H11.5882M11.5882 17.64H6.29412C5.24704 17.64 4.22348 17.9145 3.35287 18.4287C2.48225 18.943 1.80369 19.6739 1.40299 20.529C1.00229 21.3842 0.897453 22.3252 1.10173 23.233C1.306 24.1409 1.81022 24.9747 2.55061 25.6293C3.29101 26.2838 4.23433 26.7295 5.26129 26.9101C6.28825 27.0907 7.35272 26.998 8.32009 26.6438C9.28746 26.2895 10.1143 25.6897 10.696 24.9201C11.2777 24.1504 11.5882 23.2456 11.5882 22.32V17.64Z" stroke="#7C7C8A" stroke-linecap="round" stroke-linejoin="round"/>
</svg>
