<svg width="25" height="25" viewBox="0 0 25 25" fill="none" xmlns="http://www.w3.org/2000/svg">
<path d="M24.5286 11.3863L13.6133 0.471469C12.9851 -0.157156 11.9656 -0.157156 11.3365 0.471469L9.06994 2.73811L11.9452 5.61346C12.6134 5.38767 13.3796 5.53914 13.9122 6.07177C14.4474 6.60781 14.5978 7.38058 14.3665 8.05091L17.1375 10.8221C17.8079 10.5911 18.5815 10.7405 19.1169 11.2768C19.8653 12.0249 19.8653 13.2373 19.1169 13.9859C18.3684 14.7345 17.156 14.7345 16.4071 13.9859C15.8442 13.4224 15.7051 12.5957 15.9901 11.9022L13.4059 9.31802L13.4056 16.1186C13.5929 16.2113 13.764 16.3336 13.9122 16.4809C14.6606 17.229 14.6606 18.4415 13.9122 19.1907C13.1637 19.9389 11.9507 19.9389 11.2032 19.1907C10.4549 18.4415 10.4549 17.2291 11.2032 16.481C11.3826 16.3016 11.5957 16.1595 11.8303 16.063V9.19897C11.5954 9.10307 11.3821 8.96089 11.2032 8.7809C10.6363 8.21468 10.4999 7.38273 10.7905 6.68653L7.95607 3.8518L0.471681 11.3358C-0.157227 11.965 -0.157227 12.9847 0.471681 13.6134L11.3871 24.5285C12.0155 25.1572 13.0349 25.1572 13.6641 24.5285L24.5285 13.6641C25.1572 13.0352 25.1573 12.0149 24.5286 11.3863Z" fill="#7C7C8A"/>
</svg>
