<svg width="25" height="22" viewBox="0 0 25 22" fill="none" xmlns="http://www.w3.org/2000/svg">
<path d="M25 11.0025C25 9.36599 22.926 7.81506 19.7462 6.85328C20.48 3.65072 20.1539 1.10277 18.7169 0.287022C18.3856 0.0956739 17.9984 0.0050354 17.5754 0.0050354V1.12795C17.8098 1.12795 17.9984 1.17327 18.1563 1.25887C18.8494 1.65164 19.15 3.14717 18.9156 5.07073C18.8596 5.54406 18.7678 6.04257 18.6557 6.55116C17.657 6.30945 16.5664 6.12314 15.4199 6.00229C14.732 5.07073 14.0185 4.22476 13.3 3.48455C14.9613 1.9588 16.5206 1.12291 17.5805 1.12291V0C16.1792 0 14.3447 0.986954 12.4898 2.69902C10.6349 0.997025 8.80045 0.020142 7.3991 0.020142V1.14305C8.45393 1.14305 10.0183 1.97391 11.6796 3.48959C10.9662 4.2298 10.2528 5.07073 9.57501 6.00229C8.42336 6.12314 7.33286 6.30945 6.33408 6.55619C6.21688 6.05264 6.13025 5.5642 6.0691 5.0959C5.8296 3.17235 6.12515 1.67681 6.81309 1.27901C6.96596 1.18837 7.1647 1.14809 7.3991 1.14809V0.0251774C6.97106 0.0251774 6.58377 0.115816 6.24745 0.307164C4.81553 1.12291 4.4945 3.66583 5.23339 6.85832C2.0638 7.82513 0 9.37102 0 11.0025C0 12.639 2.07399 14.19 5.25377 15.1517C4.51998 18.3543 4.84611 20.9023 6.28312 21.718C6.61435 21.9094 7.00163 22 7.42968 22C8.83102 22 10.6655 21.013 12.5204 19.301C14.3753 21.003 16.2097 21.9799 17.6111 21.9799C18.0391 21.9799 18.4264 21.8892 18.7627 21.6979C20.1947 20.8821 20.5157 18.3392 19.7768 15.1467C22.9362 14.1849 25 12.634 25 11.0025ZM18.3653 7.64385C18.1767 8.29343 17.9423 8.96315 17.6773 9.63287C17.4684 9.23003 17.2493 8.82719 17.0098 8.42435C16.7754 8.02152 16.5257 7.62875 16.276 7.24605C16.9996 7.3518 17.6977 7.48272 18.3653 7.64385ZM16.0314 13.0066C15.6339 13.6864 15.2263 14.331 14.8033 14.9302C14.044 14.9956 13.2746 15.0309 12.5 15.0309C11.7305 15.0309 10.9611 14.9957 10.2069 14.9352C9.78394 14.336 9.37118 13.6965 8.97371 13.0217C8.58642 12.3621 8.23481 11.6924 7.91378 11.0176C8.22972 10.3429 8.58643 9.66812 8.96861 9.00847C9.36608 8.32868 9.77375 7.68414 10.1967 7.08492C10.956 7.01945 11.7254 6.98421 12.5 6.98421C13.2695 6.98421 14.0389 7.01946 14.7931 7.07988C15.2161 7.6791 15.6288 8.31861 16.0263 8.99336C16.4136 9.65301 16.7652 10.3227 17.0862 10.9975C16.7652 11.6722 16.4136 12.347 16.0314 13.0066ZM17.6773 12.352C17.9525 13.0268 18.1869 13.7015 18.3806 14.3561C17.713 14.5173 17.0098 14.6532 16.2811 14.759C16.5308 14.3713 16.7805 13.9734 17.0149 13.5656C17.2493 13.1627 17.4684 12.7549 17.6773 12.352ZM12.5102 17.7249C12.0363 17.2415 11.5624 16.7027 11.0936 16.1135C11.5522 16.1337 12.021 16.1488 12.4949 16.1488C12.9739 16.1488 13.4478 16.1387 13.9115 16.1135C13.4529 16.7027 12.979 17.2415 12.5102 17.7249ZM8.71891 14.759C7.99531 14.6532 7.29719 14.5223 6.62964 14.3612C6.81818 13.7116 7.05259 13.0419 7.31757 12.3722C7.5265 12.775 7.74562 13.1778 7.98512 13.5807C8.22462 13.9835 8.46922 14.3763 8.71891 14.759ZM12.4847 4.28016C12.9586 4.76356 13.4325 5.30236 13.9013 5.89151C13.4427 5.87137 12.9739 5.85626 12.5 5.85626C12.021 5.85626 11.5471 5.86633 11.0834 5.89151C11.542 5.30236 12.0159 4.76356 12.4847 4.28016ZM8.71382 7.24605C8.46413 7.63378 8.21443 8.03159 7.98002 8.43946C7.74562 8.8423 7.5265 9.24514 7.31757 9.64797C7.0424 8.97322 6.80799 8.29847 6.61435 7.64385C7.2819 7.48775 7.98512 7.3518 8.71382 7.24605ZM4.10212 13.5505C2.29821 12.7901 1.13127 11.7931 1.13127 11.0025C1.13127 10.2119 2.29821 9.20989 4.10212 8.45457C4.54036 8.26825 5.01936 8.10208 5.51366 7.94598C5.80412 8.93294 6.1863 9.96017 6.66021 11.0126C6.1914 12.06 5.81431 13.0822 5.52894 14.0641C5.02446 13.908 4.54546 13.7368 4.10212 13.5505ZM6.84366 20.7462C6.15063 20.3534 5.84998 18.8579 6.08439 16.9343C6.14044 16.461 6.23217 15.9625 6.34427 15.4539C7.34305 15.6956 8.43355 15.8819 9.58011 16.0027C10.268 16.9343 10.9815 17.7803 11.7 18.5205C10.0387 20.0462 8.47941 20.8821 7.41949 20.8821C7.19017 20.8771 6.99654 20.8318 6.84366 20.7462ZM18.9309 16.9091C19.1704 18.8327 18.8748 20.3282 18.1869 20.726C18.034 20.8167 17.8353 20.8569 17.6009 20.8569C16.5461 20.8569 14.9817 20.0261 13.3204 18.5104C14.0338 17.7702 14.7472 16.9293 15.425 15.9977C16.5766 15.8769 17.6671 15.6905 18.6659 15.4438C18.7831 15.9524 18.8748 16.4408 18.9309 16.9091ZM20.8928 13.5505C20.4545 13.7368 19.9755 13.903 19.4812 14.0591C19.1908 13.0721 18.8086 12.0449 18.3347 10.9924C18.8035 9.94507 19.1806 8.92286 19.466 7.94095C19.9704 8.09705 20.4494 8.26825 20.8979 8.45457C22.7018 9.21492 23.8687 10.2119 23.8687 11.0025C23.8636 11.7931 22.6967 12.7951 20.8928 13.5505Z" fill="#7C7C8A"/>
<path d="M12.4949 13.3037C13.7811 13.3037 14.8237 12.2734 14.8237 11.0025C14.8237 9.73159 13.7811 8.70131 12.4949 8.70131C11.2088 8.70131 10.1661 9.73159 10.1661 11.0025C10.1661 12.2734 11.2088 13.3037 12.4949 13.3037Z" fill="#7C7C8A"/>
</svg>
