<svg width="22" height="22" viewBox="0 0 22 22" fill="none" xmlns="http://www.w3.org/2000/svg">
<path d="M5.93269 21C4.46045 20.2682 3.21306 19.0939 2.33867 17.6167C1.46429 16.1395 0.999668 14.4215 1 12.6667V7.66667H17.9231V12.6667C17.9234 14.4215 17.4588 16.1395 16.5844 17.6167C15.71 19.0939 14.4626 20.2682 12.9904 21" fill="#800ADD"/>
<path d="M17.9231 7.66667C18.7391 7.66667 19.5218 8.01786 20.0988 8.64298C20.6758 9.2681 21 10.1159 21 11V11.8333C21 12.7174 20.6758 13.5652 20.0988 14.1904C19.5218 14.8155 18.7391 15.1667 17.9231 15.1667H17.5981" fill="#800ADD"/>
<path d="M6.38462 1V4.33333M9.46154 1V4.33333M12.5385 1V4.33333M1 21H17.9231M5.93269 21C4.46045 20.2682 3.21306 19.0939 2.33867 17.6167C1.46429 16.1395 0.999668 14.4215 1 12.6667V7.66667H17.9231M17.9231 7.66667V12.6667C17.9234 14.4215 17.4588 16.1395 16.5844 17.6167C15.71 19.0939 14.4626 20.2682 12.9904 21M17.9231 7.66667C18.7391 7.66667 19.5218 8.01786 20.0988 8.64298C20.6758 9.2681 21 10.1159 21 11V11.8333C21 12.7174 20.6758 13.5652 20.0988 14.1904C19.5218 14.8155 18.7391 15.1667 17.9231 15.1667H17.5981" stroke="#8257E5" stroke-width="1.5" stroke-linecap="round" stroke-linejoin="round"/>
</svg>
