<svg width="50" height="50" viewBox="0 0 50 50" fill="none" xmlns="http://www.w3.org/2000/svg">
<path d="M45.3992 26.1157C44.392 25.6163 43.3165 25.2411 42.2007 25C43.3165 24.7589 44.392 24.3837 45.3992 23.8843C46.4395 23.3371 47.3512 22.6086 48.0825 21.7403C48.8137 20.8721 49.3501 19.8811 49.661 18.824C49.9719 17.7669 50.0513 16.6643 49.8946 15.5792C49.7379 14.4941 49.3481 13.4478 48.7476 12.5C48.1471 11.5522 47.3475 10.7214 46.3947 10.0551C45.4418 9.38883 44.3542 8.90008 43.194 8.61678C42.0338 8.33348 40.8237 8.26116 39.6329 8.40397C38.442 8.54677 37.2937 8.9019 36.2535 9.44907C35.2761 9.99596 34.3818 10.6575 33.5936 11.4167C33.9213 10.415 34.1024 9.37824 34.1322 8.33333C34.1322 6.1232 33.1686 4.00358 31.4534 2.44078C29.7383 0.877974 27.412 0 24.9864 0C22.5608 0 20.2345 0.877974 18.5194 2.44078C16.8042 4.00358 15.8406 6.1232 15.8406 8.33333C15.8704 9.37824 16.0515 10.415 16.3792 11.4167C15.591 10.6575 14.6967 9.99596 13.7193 9.44907C11.6185 8.34401 9.12191 8.04462 6.77881 8.61678C4.43571 9.18894 2.43802 10.5858 1.22522 12.5C0.0124147 14.4142 -0.316158 16.689 0.311782 18.824C0.939722 20.959 2.47274 22.7792 4.57358 23.8843C5.58076 24.3837 6.65634 24.7589 7.77205 25C6.65634 25.2411 5.58076 25.6163 4.57358 26.1157C2.47274 27.2208 0.939722 29.041 0.311782 31.176C-0.316158 33.311 0.0124147 35.5858 1.22522 37.5C2.43802 39.4142 4.43571 40.8111 6.77881 41.3832C9.12191 41.9554 11.6185 41.656 13.7193 40.5509C14.6967 40.004 15.591 39.3425 16.3792 38.5833C16.0515 39.585 15.8704 40.6218 15.8406 41.6667C15.8406 43.8768 16.8042 45.9964 18.5194 47.5592C20.2345 49.122 22.5608 50 24.9864 50C27.412 50 29.7383 49.122 31.4534 47.5592C33.1686 45.9964 34.1322 43.8768 34.1322 41.6667C34.1024 40.6218 33.9213 39.585 33.5936 38.5833C34.3818 39.3425 35.2761 40.004 36.2535 40.5509C37.6427 41.2852 39.2203 41.6717 40.8263 41.6713C41.6303 41.67 42.4306 41.5727 43.2068 41.3819C44.9575 40.9573 46.5303 40.0686 47.7258 38.8283C48.9213 37.5881 49.6857 36.0522 49.9219 34.4156C50.1581 32.779 49.8556 31.1153 49.0527 29.6356C48.2497 28.1559 46.9826 26.9268 45.4119 26.1042L45.3992 26.1157ZM37.2697 11.0532C38.9036 10.1937 40.8453 9.96086 42.6676 10.4058C44.49 10.8508 46.0437 11.9372 46.987 13.4259C47.9303 14.9147 48.1859 16.6839 47.6976 18.3444C47.2092 20.0049 46.0169 21.4206 44.383 22.2801C42.6174 23.206 39.3478 23.8218 34.8714 24.0718L34.0686 24.0324C33.9234 22.9056 33.5272 21.8177 32.9042 20.8353C32.2813 19.853 31.4448 18.9968 30.4459 18.3194C30.5704 18.088 30.7 17.8796 30.8117 17.662C33.2862 14.2569 35.504 11.9838 37.2697 11.0532ZM24.9864 31.4815C23.5795 31.4815 22.2042 31.1013 21.0344 30.3892C19.8646 29.677 18.9529 28.6647 18.4145 27.4804C17.8761 26.296 17.7352 24.9928 18.0097 23.7355C18.2842 22.4782 18.9617 21.3234 19.9565 20.4169C20.9513 19.5104 22.2188 18.8931 23.5986 18.6431C24.9785 18.393 26.4088 18.5213 27.7086 19.0119C29.0084 19.5025 30.1193 20.3332 30.9009 21.3991C31.6826 22.465 32.0998 23.7181 32.0998 25C32.0998 26.719 31.3503 28.3676 30.0163 29.5831C28.6823 30.7986 26.873 31.4815 24.9864 31.4815ZM24.9864 1.85185C26.873 1.85185 28.6823 2.53472 30.0163 3.75023C31.3503 4.96575 32.0998 6.61434 32.0998 8.33333C32.0998 10.1852 31.048 13.0787 29.0512 16.7361C28.9038 16.9375 28.759 17.1412 28.6117 17.3495C27.4679 16.899 26.235 16.6667 24.9889 16.6667C23.7429 16.6667 22.51 16.899 21.3662 17.3495C21.2189 17.1412 21.074 16.9375 20.9267 16.7361C18.9248 13.0787 17.873 10.1852 17.873 8.33333C17.873 6.61434 18.6225 4.96575 19.9565 3.75023C21.2905 2.53472 23.0998 1.85185 24.9864 1.85185ZM5.58978 22.2801C4.78074 21.8545 4.07163 21.2879 3.50292 20.6126C2.93421 19.9373 2.51705 19.1666 2.27524 18.3444C1.7869 16.6839 2.04248 14.9147 2.98578 13.4259C3.92907 11.9372 5.48279 10.8508 7.30515 10.4058C9.12751 9.96086 11.0692 10.1937 12.7031 11.0532C14.4688 11.9792 16.6866 14.2569 19.1611 17.662C19.2805 17.8796 19.4151 18.0972 19.5269 18.3194C18.528 18.9968 17.6915 19.853 17.0686 20.8353C16.4456 21.8177 16.0494 22.9056 15.9042 24.0324L15.1014 24.0718C10.625 23.8218 7.35541 23.2083 5.58978 22.2801ZM12.7031 38.9468C11.8941 39.3723 11.001 39.6486 10.0748 39.7596C9.14862 39.8707 8.20749 39.8145 7.30515 39.5942C6.40281 39.3738 5.55693 38.9937 4.81581 38.4756C4.07469 37.9574 3.45285 37.3112 2.98578 36.5741C2.51871 35.8369 2.21556 35.0231 2.09365 34.1792C1.97173 33.3353 2.03344 32.4778 2.27524 31.6556C2.51705 30.8334 2.93421 30.0627 3.50292 29.3874C4.07163 28.7121 4.78074 28.1455 5.58978 27.7199C7.36812 26.794 10.625 26.1782 15.1014 25.9282L15.9042 25.9676C16.0494 27.0944 16.4456 28.1823 17.0686 29.1647C17.6915 30.147 18.528 31.0032 19.5269 31.6806C19.4024 31.912 19.2728 32.1204 19.1611 32.338C16.6866 35.7431 14.4688 38.0162 12.7031 38.9468ZM24.9864 48.1481C23.0998 48.1481 21.2905 47.4653 19.9565 46.2498C18.6225 45.0343 17.873 43.3857 17.873 41.6667C17.873 39.8148 18.9248 36.9213 20.9216 33.2639C21.069 33.0625 21.2138 32.8588 21.3611 32.6505C22.5049 33.1009 23.7378 33.3333 24.9839 33.3333C26.2299 33.3333 27.4628 33.1009 28.6066 32.6505C28.7539 32.8588 28.8988 33.0625 29.0461 33.2639C31.0455 36.9213 32.0947 39.8079 32.0947 41.6667C32.0947 43.3849 31.3459 45.0327 30.013 46.2481C28.6801 47.4635 26.8721 48.1469 24.9864 48.1481ZM46.987 36.5741C46.52 37.3113 45.8982 37.9574 45.157 38.4756C44.4159 38.9938 43.57 39.374 42.6677 39.5943C41.7653 39.8146 40.8242 39.8708 39.898 39.7597C38.9718 39.6486 38.0787 39.3724 37.2697 38.9468C35.504 38.0208 33.2862 35.7431 30.8117 32.338C30.6923 32.1204 30.5577 31.9028 30.4459 31.6806C31.4448 31.0032 32.2813 30.147 32.9042 29.1647C33.5272 28.1823 33.9234 27.0944 34.0686 25.9676L34.8714 25.9282C39.3478 26.1782 42.6174 26.7917 44.383 27.7199C45.1921 28.1455 45.9012 28.7121 46.47 29.3873C47.0387 30.0626 47.4559 30.8334 47.6977 31.6556C47.9395 32.4778 48.0012 33.3353 47.8792 34.1792C47.7573 35.0231 47.4541 35.8369 46.987 36.5741Z" fill="url(#paint0_linear_94_906)"/>
<defs>
<linearGradient id="paint0_linear_94_906" x1="8.8785" y1="25" x2="50" y2="25" gradientUnits="userSpaceOnUse">
<stop stop-color="#A839FF"/>
<stop offset="1" stop-color="#800ADD"/>
</linearGradient>
</defs>
</svg>
