<svg width="300" height="300" viewBox="0 0 300 300" fill="none" xmlns="http://www.w3.org/2000/svg">
<circle cx="150" cy="150" r="150" fill="#121214"/>
<path d="M119.778 43C119.778 43 115.778 54.5 119.778 58C123.778 61.5 119.778 73 119.778 73M149.778 43C149.778 43 145.278 56 149.778 58C154.278 60 149.778 73 149.778 73M179.778 43C179.778 43 174.778 56 179.778 58C184.778 60 179.778 73 179.778 73" stroke="url(#paint0_linear_333_51)" stroke-width="10" stroke-linecap="round" stroke-linejoin="round"/>
<path d="M60 230H232.099M110.163 230C95.1911 222.316 82.5056 209.986 73.6136 194.476C64.7216 178.965 59.9966 160.926 60 142.5V90L232.099 92M232.099 92V142.5C232.102 160.926 227.378 178.965 218.485 194.476C209.593 209.986 196.908 222.316 181.936 230M232.099 92C240.398 92 254.967 95.6875 260.835 102.251C266.703 108.815 270 117.717 270 127V135.75C270 145.033 266.703 153.935 260.835 160.499C254.967 167.062 247.008 170.75 232.099 170.75H228.794" stroke="url(#paint1_linear_333_51)" stroke-width="16" stroke-linecap="round" stroke-linejoin="round"/>
<defs>
<linearGradient id="paint0_linear_333_51" x1="129.364" y1="58" x2="182" y2="58" gradientUnits="userSpaceOnUse">
<stop stop-color="#9924F8"/>
<stop offset="1" stop-color="#C54385"/>
</linearGradient>
<linearGradient id="paint1_linear_333_51" x1="97.2897" y1="160" x2="270" y2="160" gradientUnits="userSpaceOnUse">
<stop stop-color="#9924F8"/>
<stop offset="1" stop-color="#C54385"/>
</linearGradient>
</defs>
</svg>
